<svg width="22" height="22" viewBox="0 0 22 22" fill="none" xmlns="http://www.w3.org/2000/svg">
<path d="M21.7823 11.253C21.7823 10.5052 21.7217 9.75345 21.5923 9.01782H11.2168V13.2537H17.1584C16.9118 14.6199 16.1196 15.8284 14.9596 16.5964V19.3448H18.5043C20.5859 17.429 21.7823 14.5997 21.7823 11.253Z" fill="#4285F4"/>
<path d="M11.2176 22.0002C14.1843 22.0002 16.6862 21.0261 18.5091 19.3447L14.9644 16.5962C13.9782 17.2671 12.705 17.6471 11.2216 17.6471C8.35187 17.6471 5.91865 15.711 5.0456 13.108H1.3877V15.9414C3.25505 19.6559 7.05847 22.0002 11.2176 22.0002Z" fill="#34A853"/>
<path d="M5.04128 13.1085C4.5805 11.7423 4.5805 10.263 5.04128 8.89684V6.06348H1.38741C-0.172757 9.17169 -0.172757 12.8336 1.38741 15.9418L5.04128 13.1085Z" fill="#FBBC04"/>
<path d="M11.2176 4.35373C12.7858 4.32948 14.3015 4.9196 15.4373 6.00282L18.5778 2.86228C16.5892 0.994924 13.9499 -0.0317159 11.2176 0.000619207C7.05847 0.000619207 3.25505 2.34491 1.3877 6.06345L5.04156 8.89682C5.91057 6.2898 8.34783 4.35373 11.2176 4.35373Z" fill="#EA4335"/>
</svg>
