<svg width="18" height="18" viewBox="0 0 18 18" fill="none" xmlns="http://www.w3.org/2000/svg">
<g id="vuesax/linear/note">
<g id="note">
<path id="Vector" d="M16.245 7.82988L15.51 10.9649C14.88 13.6724 13.635 14.7674 11.295 14.5424C10.92 14.5124 10.515 14.4449 10.08 14.3399L8.82 14.0399C5.6925 13.2974 4.725 11.7524 5.46 8.61738L6.195 5.47488C6.345 4.83738 6.525 4.28238 6.75 3.82488C7.6275 2.00988 9.12 1.52238 11.625 2.11488L12.8775 2.40738C16.02 3.14238 16.98 4.69488 16.245 7.82988Z" stroke="#5F6D7E" stroke-width="1.5" stroke-linecap="round" stroke-linejoin="round"/>
<path id="Vector_2" d="M11.295 14.5425C10.83 14.8575 10.245 15.12 9.5325 15.3525L8.3475 15.7425C5.37 16.7025 3.8025 15.9 2.835 12.9225L1.875 9.95995C0.914997 6.98245 1.71 5.40745 4.6875 4.44745L5.8725 4.05745C6.18 3.95995 6.4725 3.87745 6.75 3.82495C6.525 4.28245 6.345 4.83745 6.195 5.47495L5.46 8.61745C4.725 11.7525 5.6925 13.2975 8.82 14.04L10.08 14.34C10.515 14.445 10.92 14.5125 11.295 14.5425Z" stroke="#5F6D7E" stroke-width="1.5" stroke-linecap="round" stroke-linejoin="round"/>
</g>
</g>
</svg>
