<svg width="19" height="18" viewBox="0 0 19 18" fill="none" xmlns="http://www.w3.org/2000/svg">
<g id="vuesax/linear/row-vertical">
<g id="row-vertical">
<path id="Vector" d="M15.425 10.125H3.575C2.45 10.125 2 10.605 2 11.7975V14.8275C2 16.02 2.45 16.5 3.575 16.5H15.425C16.55 16.5 17 16.02 17 14.8275V11.7975C17 10.605 16.55 10.125 15.425 10.125Z" stroke="#5F6D7E" stroke-width="1.5" stroke-linecap="round" stroke-linejoin="round"/>
<path id="Vector_2" d="M15.425 1.5H3.575C2.45 1.5 2 1.98 2 3.1725V6.2025C2 7.395 2.45 7.875 3.575 7.875H15.425C16.55 7.875 17 7.395 17 6.2025V3.1725C17 1.98 16.55 1.5 15.425 1.5Z" stroke="#5F6D7E" stroke-width="1.5" stroke-linecap="round" stroke-linejoin="round"/>
</g>
</g>
</svg>
